#tb 0: 1/25
#media_type 0: video
#codec_id 0: rawvideo
#dimensions 0: 352x288
#sar 0: 0/1
0,          0,          0,        1,   304128, 0xd50c9fea
0,          1,          1,        1,   304128, 0xdf9e1f79
0,          2,          2,        1,   304128, 0x9b84087e
